# xmcd CD database file
#
# Track frame offsets:
#	150
#	900
#	1650
#	2400
#	3150
#	3900
#	4650
#	5400
#	6150
#	6900
#	7650
#	8400
#	9150
#	9900
#	10650
#	11400
#	293095
#
# Disc length: 4440 seconds
#
# Revision: 11
# Processed by: cddbd v1.5.2PL0 Copyright (c) Steve Scherf et al.
# Submitted via: CDex 1.51
#
DISCID=75115611
DTITLE=QUEEN - Unknown CD for MusicBrainz and FreeDB
DYEAR=1900
DGENRE=Rock
TTITLE0=I WAS BORN TO LOVE YOU
TTITLE1=WE WILL ROCK YOU
TTITLE2=WE ARE THE CHAMPIONS
TTITLE3=DON'T STOP ME NOW
TTITLE4=TOO MUCH LOVE WILL KILL YOU
TTITLE5=LET ME LIVE
TTITLE6=YOU'RE MY BEST FRIEND
TTITLE7=UNDER PRESSURE
TTITLE8=RADIO GA GA
TTITLE9=SOMEBODY TO LOVE
TTITLE10=KILLER QUEEN
TTITLE11=ANOTHER ONE BITS THE DUST
TTITLE12=CRAZY LITTLE THING CALLED LOVE
TTITLE13=FLASH
TTITLE14=THE SHOW MUST GO ON
TTITLE15=BOHEMIAN RHAPSODY
TTITLE16=CCCD
EXTD=
EXTT0=
EXTT1=
EXTT2=
EXTT3=
EXTT4=
EXTT5=
EXTT6=
EXTT7=
EXTT8=
EXTT9=
EXTT10=
EXTT11=
EXTT12=
EXTT13=
EXTT14=
EXTT15=
EXTT16=
PLAYORDER=
